<svg xmlns="http://www.w3.org/2000/svg" width="405" height="112" fill="none" viewBox="0 0 405 112"><path fill="#1D1D1D" d="M176.04 50.6c9.6 0 15.92-5.52 15.92-14.8 0-9.2-6.32-14.8-15.92-14.8h-28.48c-9.6 0-15.92 5.6-15.92 14.8 0 9.2 6.32 14.8 15.92 14.8h28.48Zm20.56 13.92v-9.6H127v9.6h30.8v12H169v-12h27.6Zm-4.64 26.72v-9.76H145v-12.4h-11.04v22.16h58ZM174.84 30.6c3.84 0 6.08 2.08 6.08 5.2 0 3.2-2.24 5.2-6.08 5.2h-26.08c-3.84 0-6.08-2.08-6.08-5.2 0-2.88 2.24-5.2 6.08-5.2h26.08ZM243.954 55.72c-4.72-3.68-10.56-8.56-14.64-12.72-1.44-1.52-2.48-3.44-2.48-6.08v-4.24h15.2v-9.6h-42.08v9.6h15.68v4.24c0 2.64-.96 4.64-2.48 6.08-4.88 4.64-11.04 9.68-16.32 14l6.64 7.44c6-4.48 12.32-9.92 17.76-14.64 5.12 4.4 10.72 9.2 16.4 13.36l6.32-7.44Zm18.96 35.52v-9.76h-45.84v-14.4h-11.04v24.16h56.88Zm-1.68-18.64V21.24h-11.04v15.44h-12.64v9.6h12.64V72.6h11.04ZM332.508 91.24v-9.76h-45.841v-15.2h-11.039v24.96h56.88Zm-18.8-36.8c-6.32-5.36-9.681-8.72-14.72-13.44-1.76-1.6-2.8-4.16-2.8-6.64V22.68h-11.2v11.68c0 2.48-1.041 5.04-2.8 6.64-5.2 4.88-10 9.36-16.161 14.72l6.64 7.6c6.32-5.28 11.92-10.24 17.92-15.84 5.92 5.52 10.401 9.44 16.8 14.56l6.321-7.6Zm17.119 17.36V21.24h-11.039v11.84h-13.28v9.76h13.28V71.8h11.039ZM388.901 91.72c9.2 0 15.92-5.68 15.92-15.12s-6.72-15.12-15.92-15.12h-28.16c-9.2 0-15.92 5.68-15.92 15.12s6.72 15.12 15.92 15.12h28.16Zm14.88-31.92V21.24h-10.88V34.2h-7.04V22.04h-10.72V49.8c-4.24-4.16-8.24-7.92-11.36-11.76-1.44-1.68-2-3.92-2-6.64v-9.12h-11.04v9.12c0 2.72-.56 4.88-2 6.64-3.44 4.16-9.44 10.72-13.68 15.04l7.84 6.32c4.64-4.8 9.36-9.52 13.68-14.32 4.16 4.48 7.84 8 12.08 12.4l6.48-6.56v7.84h10.72v-14h7.04V59.8h10.88Zm-16.08 11.28c3.84 0 6.08 2 6.08 5.52 0 3.52-2.24 5.52-6.08 5.52h-25.76c-3.84 0-6.08-2-6.08-5.52 0-3.52 2.24-5.52 6.08-5.52h25.76Z"/><circle cx="56" cy="56" r="56" fill="#FFEC42"/><path fill="#1D1D1D" fill-rule="evenodd" d="m58.859 22.666-4.7.043-29.036 14.218.003 7.667 29.032 12.833h4.7l29.347-12.796v-7.747L58.859 22.666ZM37.932 40.514l18.678-9.063 18.653 9.061-18.658 8.157-18.673-8.155ZM76.415 65.89v5.554L56.6 79.978 27.396 67.217l-4.792 8.366 31.338 13.84h5.107l31.881-13.8-4.608-8.446-.03.013v-5.576l4.637-2.007-4.609-8.446-29.72 12.8-29.205-12.76-4.793 8.366 31.339 13.84h5.106l17.368-7.518Z" clip-rule="evenodd"/></svg>