<svg xmlns="http://www.w3.org/2000/svg" width="694" height="168" fill="none"><g fill="#38D430" clip-path="url(#a)"><path d="M83.82 31.92h83.33V.67H83.82C37.8.67.49 37.98.49 84c0 46.02 37.31 83.33 83.33 83.33 40.27 0 73.87-28.56 81.64-66.54.08-.39.15-.78.22-1.17.95-5.04 1.47-10.33 1.47-15.62V68.38H83.82v31.25h49.7c-6.64 21.13-26.37 36.46-49.7 36.46-28.76 0-52.08-23.32-52.08-52.08 0-28.76 23.32-52.08 52.08-52.08v-.01Zm187.51.17 46.74-.21V.67l-46.74.21c-45.97 0-83.23 37.26-83.23 83.23 0 45.97 37.26 83.23 83.23 83.23h46.74v-31.21h-46.74c-28.73 0-52.02-23.29-52.02-52.02 0-28.73 23.29-52.02 52.02-52.02ZM422.36.67c-46.02 0-83.33 37.31-83.33 83.33 0 46.02 37.31 83.33 83.33 83.33 46.02 0 83.33-37.31 83.33-83.33 0-46.02-37.31-83.33-83.33-83.33Zm0 135.42c-28.76 0-52.08-23.32-52.08-52.08 0-28.76 23.32-52.08 52.08-52.08 28.76 0 52.08 23.32 52.08 52.08 0 28.76-23.32 52.08-52.08 52.08ZM609.86.67c-46.02 0-83.33 37.31-83.33 83.33 0 46.02 37.31 83.33 83.33 83.33 46.02 0 83.33-37.31 83.33-83.33 0-46.02-37.31-83.33-83.33-83.33Zm0 135.42c-28.76 0-52.08-23.32-52.08-52.08 0-28.76 23.32-52.08 52.08-52.08 28.76 0 52.08 23.32 52.08 52.08 0 28.76-23.32 52.08-52.08 52.08Z"/></g><defs><clipPath id="a"><path fill="#fff" d="M0 0h694v168H0z"/></clipPath></defs></svg>