<?xml version="1.0" encoding="utf-8"?>
<!-- Generator: Adobe Illustrator 16.0.0, SVG Export Plug-In . SVG Version: 6.00 Build 0)  -->
<!DOCTYPE svg PUBLIC "-//W3C//DTD SVG 1.1//EN" "http://www.w3.org/Graphics/SVG/1.1/DTD/svg11.dtd">
<svg version="1.1" id="Layer_1" xmlns="http://www.w3.org/2000/svg" xmlns:xlink="http://www.w3.org/1999/xlink" x="0px" y="0px"
	 width="80.399px" height="19.6px" viewBox="0 0 80.399 19.6" enable-background="new 0 0 80.399 19.6" xml:space="preserve">
<g>
	<path fill="#142C67" d="M37.3,1.5c0-0.7-0.601-1.1-1.2-1.1H23.5v1.2h10.699v2.8c0,1.1-0.1,2.1-0.399,3H21.199v1.3h7.4v2.4h-5.3v1.2
		h10.899v6.5H36c0.899,0,1.3-0.301,1.3-1.301v-5.3c0-0.7-0.5-1.1-1.101-1.1h-4.5V8.7h7.7V7.4h-3c0.5-0.7,0.9-2,0.9-3.1V1.5L37.3,1.5
		z"/>
	<path fill="#142C67" d="M7.5,12.4H4c0.3,0.3,0.399,1,0.399,1.6v3.5C4.399,18.7,4.8,19,6,19h10.8V17.8h-9.4v-5.4H7.5z"/>
	<path fill="#142C67" d="M11.3,1.6H7.199V0H3.8C4,0.2,4.1,0.8,4.1,1.3v0.3H0v1.2h2.699c-1.199,0.8-2,2.1-2,3.7
		c0,2.7,2.301,4.6,4.9,4.6c2.7,0,4.9-1.9,5-4.6c0-1.6-0.8-2.9-2-3.7h2.7V1.6z M5.6,9.9c-1.4,0-2.3-1.4-2.3-3.3
		c0-2,0.899-3.3,2.3-3.3s2.3,1.4,2.3,3.3C7.899,8.5,7,9.9,5.6,9.9z"/>
	<path fill="#142C67" d="M16.1,0.4h-3.5c0.3,0.3,0.4,1,0.4,1.6v11.6h1.8c0.899,0,1.3-0.4,1.3-1.3V6.1h3V4.9h-3
		C16.1,4.8,16.1,0.4,16.1,0.4z"/>
	<path fill="#142C67" d="M77,0.4c0.399,0.3,0.6,1,0.6,1.6v17H79c1,0,1.399-0.6,1.399-1.6v-17H77L77,0.4z"/>
	<path fill="#142C67" d="M73.5,6.3h-3v1.2h3v9.7h1.3c1,0,1.399-0.6,1.399-1.7V0.4h-3.3c0.4,0.3,0.5,1,0.5,1.6L73.5,6.3L73.5,6.3z"/>
	<path fill="#142C67" d="M52.3,2.3c0.1-0.7-0.3-1.2-1-1.2h-8.2v1.3h6.1c0,4.4-2.699,7.2-7.1,8l0.6,0.8
		C48.399,10.5,51.8,7.8,52.3,2.3"/>
	<path fill="#142C67" d="M58.6,0.4h-3.5c0.4,0.3,0.5,1,0.5,1.6v1.4h-3.2v1.3h3.2v1.7h-3.3v1.2h3.3V10.5c-0.8-0.3-1.7-0.5-2.6-0.5
		c-3,0-5.5,2-5.5,4.8c0,2.899,2.5,4.8,5.5,4.8s5.5-2,5.6-4.8c0-0.101,0-0.101,0-0.2l0,0V0.4z M53,18.3c-1.601,0-2.7-1.4-2.7-3.5
		c0-2.101,1.1-3.5,2.7-3.5c1.6,0,2.699,1.399,2.699,3.5C55.699,16.9,54.6,18.3,53,18.3z"/>
	<path fill="#142C67" d="M71.399,2.2c0-0.8-0.5-1.1-1.1-1.1h-7.2v1.3h5.3c0,3.8-2.7,6.3-6.6,7.7c4.3,0.7,7.5,2.8,9.7,5.899v-3.8
		c-1.801-1.399-3.801-2.2-5.7-2.5C68.699,8.5,71.399,4.8,71.399,2.2"/>
</g>
</svg>
