<svg width="760" height="248" viewBox="0 0 760 248" fill="none" xmlns="http://www.w3.org/2000/svg">
<path d="M499.55 54.3428V105.857H437.995V54.3428H417.241V180.742H437.995V125.056H499.55V180.742H520.269V54.3428H499.55Z" fill="#ffffff"/>
<path d="M630.121 121.591C627.01 118.656 622.838 116.04 617.711 113.812C612.585 111.585 606.362 109.711 599.185 108.191L588.366 105.928C578.925 103.842 571.996 101.155 567.753 97.9726C564.04 95.1794 562.096 91.0427 562.096 85.9868C562.096 81.3904 564.5 76.8648 568.319 74.2131C572.632 71.2431 579.138 69.546 586.209 69.546C595.543 69.546 603.357 71.5613 608.201 75.203C613.08 78.8801 615.307 83.7593 615.908 91.9973L615.979 92.952H636.486V91.8913C636.344 85.6332 635.39 80.3651 633.48 75.8041C631.465 70.8896 628.354 66.6115 624.005 62.6869C619.727 58.833 614.529 56.0752 608.165 54.2367C601.942 52.4689 594.694 51.585 586.032 51.585C572.455 51.585 561.459 54.767 553.363 61.0605C545.16 67.4246 541.023 75.9455 541.023 86.305C541.023 97.1947 544.559 105.645 551.595 111.479C558.631 117.313 568.637 121.626 580.587 123.995L591.229 126.258C601.023 128.414 608.094 131.066 612.266 134.036C616.439 137.006 618.525 141.001 618.525 145.845C618.525 151.75 615.979 156.876 611.312 160.271C606.786 163.594 599.149 165.574 590.911 165.574C570.334 165.574 558.702 156.099 558.171 138.915V138.597H537.417V138.915C537.594 153.659 542.402 164.867 551.736 172.292C561.141 179.752 574.188 183.535 590.522 183.535C605.584 183.535 617.676 180.07 626.515 173.211C635.39 166.316 639.915 156.947 639.915 145.315C639.915 136.016 636.415 127.566 630.051 121.555" fill="#ffffff"/>
<path d="M739.691 54.3428V149.275L679.479 54.3428H656.391V180.742H676.615V85.7392L736.862 180.742H759.915V54.3428H739.691Z" fill="#ffffff"/>
<path d="M396.664 126.152C393.34 121.202 388.426 117.313 381.991 114.59C392.032 108.473 397.123 99.4222 397.123 87.6839C397.123 78.1376 393.694 70.1117 386.976 63.7829C380.082 57.3481 370.606 54.3428 357.1 54.3428H302.439V180.742H359.54C373.258 180.742 383.865 177.454 391.148 170.948C398.432 164.443 402.144 155.497 402.144 144.431C402.144 137.749 400.306 131.596 396.664 126.152ZM323.229 125.197H358.55C366.187 125.197 371.95 126.788 375.697 129.864C379.481 133.011 381.284 137.642 381.284 144.077C381.284 149.911 379.375 154.507 375.627 157.725C371.808 161.013 366.045 162.675 358.585 162.675H323.264V125.197H323.229ZM371.561 102.816C368.096 105.998 362.863 107.625 355.933 107.625H323.229V72.4452H355.933C362.722 72.4452 367.954 74.0009 371.49 77.0416C374.99 80.0469 376.758 84.1836 376.758 89.2749C376.758 95.1087 374.99 99.6697 371.525 102.852" fill="#ffffff"/>
<path d="M182.403 73.117V54.3428C190.146 54.3428 196.263 55.0499 202.203 57.0298C207.082 58.6562 212.032 61.6969 214.648 64.6668V54.3428H232.715V91.3963H212.35C210.688 87.2596 207.082 81.4965 201.602 78.1022C195.662 74.3898 187.848 73.117 182.403 73.117Z" fill="#ffffff"/>
<path d="M0 71.8088V54.3428H44.3723V71.8088H33.6239V108.827H56.0045V126.293H33.6239V163.311H44.3723V180.742H0V163.311H10.7483V71.8088H0Z" fill="#ffffff"/>
<path d="M147.895 82.9815C139.869 78.8448 128.237 76.9002 114.66 76.9002V94.3309C124.631 94.3309 131.454 96.028 137.005 99.9879C142.839 104.16 146.587 110.984 146.587 121.131C146.587 130.465 142.91 138.385 136.864 142.663C130.394 147.259 121.378 148.497 109.463 148.497H93.9413V67.7075H70.2878V165.928H109.781C125.691 165.928 140.081 164.372 148.143 160.165C164.018 151.856 170.417 137.324 170.417 121.131C170.417 104.938 164.407 91.467 147.93 82.9461" fill="#ffffff"/>
<path d="M152.952 10.5716C147.861 5.97524 137.82 0 120.141 0H59.5759V17.4307H70.3243V54.3428H93.9424V17.4307H113.212C122.616 17.4307 128.45 20.1885 131.774 22.7695C135.698 25.8102 138.385 29.4519 139.411 34.6493C141.32 44.1601 136.653 53.5296 136.264 54.3074H159.847C161.402 50.7011 163.701 43.8773 163.701 36.0989C163.701 27.1184 160.094 17.0064 152.952 10.5362" fill="#ffffff"/>
<path d="M70.2879 180.742V230.064H59.5396V247.495H104.69V230.064H93.9413V180.742H70.2879Z" fill="#ffffff"/>
<path d="M166.246 180.742V247.495H144.077L99.6694 180.742H122.05L142.592 211.962V180.742H166.246Z" fill="#ffffff"/>
<path d="M182.404 180.742C197.041 180.742 205.633 180.212 215.78 175.757C231.266 168.968 236.181 154.26 235.438 143.724C234.201 126.328 221.013 117.065 208.072 109.57C201.425 105.716 187.495 99.3515 182.404 97.6898V119.116C185.833 120.389 192.374 123.146 196.688 125.621C205.88 130.819 210.83 136.122 211.679 143.3C212.563 150.689 208.391 159.634 195.981 161.367C191.101 162.074 184.843 161.968 182.368 161.791V180.742H182.404Z" fill="#ffffff"/>
</svg>
