<svg xmlns="http://www.w3.org/2000/svg" width="2000pt" height="2000pt" viewBox="0 0 2000 2000"><path d="M1411.762 1830.055c-227.817 226.422-595.707 226.422-823.524 0l-418.336-418.418c-226.511-227.782-226.511-595.742 0-823.524l418.336-418.25c227.782-226.511 595.742-226.511 823.524 0l418.336 418.332c226.418 227.82 226.418 595.707 0 823.524Zm0 0" style="stroke:none;fill-rule:nonzero;fill:#ed1b23;fill-opacity:1"/><path d="M751.86 1614.523c-33.223-.73-59.669-28.062-59.305-61.293.363-33.226 27.406-59.972 60.636-59.972 33.235 0 60.274 26.746 60.637 59.972.367 33.23-26.082 60.563-59.305 61.293ZM977.043 472.488a112.053 112.053 0 0 0-83.188 32.524c-47.414 47.164-72.285 144.492-70.12 274.008 2.66 159.714 40.757 473.07 166.367 634.449a279.786 279.786 0 0 0 65.05 62.054 144.755 144.755 0 0 0 85.762 28.95 194.45 194.45 0 0 0 33.274-3.164c72.039-17.301 162.292-97.493 229.421-204.215a55.48 55.48 0 0 1 49.29-26.934 55.488 55.488 0 0 1 47.55 29.902 55.484 55.484 0 0 1-2.926 56.09c-84.847 134.926-196.894 229.758-299.46 253.547 0 0-1.497 0-2.579.582a311.54 311.54 0 0 1-55.07 5.157 256.036 256.036 0 0 1-146.402-47.247 391.43 391.43 0 0 1-91.504-86.511c-176.852-227.094-188.91-652.914-189.742-700.746-1.914-113.297 14.39-266.856 102.898-354.7a220.613 220.613 0 0 1 160.879-64.632h10.312a220.534 220.534 0 0 1 161.13 64.632c88.507 87.844 104.812 241.239 102.898 354.7-1.996 118.039-23.625 346.71-145.988 551.761a55.815 55.815 0 0 1-47.747 27.035 54.963 54.963 0 0 1-28.367-7.82c-26.258-15.762-34.843-49.777-19.215-76.113 85.68-143.492 127.106-301.293 130.348-496.777 2.246-129.602-22.707-226.926-70.121-274.008a111.639 111.639 0 0 0-83.188-32.524Zm0 0" style="stroke:none;fill-rule:nonzero;fill:#fff;fill-opacity:1"/></svg>