<svg xmlns="http://www.w3.org/2000/svg" width="850.265" height="237.877" viewBox="0 0 850.265 237.877"><path fill="#FF8A3D" d="M90.327 44.143C40.467 44.143 0 84.607 0 134.471c0 20.844 7.358 40.053 19.21 55.587.82 1.224 2.044 2.452 2.862 3.269 1.224 1.634 2.862 3.269 4.496 4.903a144.234 144.234 0 0 0 63.76 39.647 144.23 144.23 0 0 0 63.763-39.643c1.634-1.635 2.858-3.27 4.496-4.904.814-1.227 2.041-2.451 2.858-3.268a89.735 89.735 0 0 0 19.21-55.588c0-49.863-40.464-90.327-90.328-90.327zm0 124.66a34.711 34.711 0 0 1-34.74-34.74 34.711 34.711 0 0 1 34.74-34.743c19.21 0 34.334 15.53 34.334 34.744 0 19.21-15.124 34.74-34.33 34.74z"/><path fill="#56C271" d="M119.757 42.098c6.131-1.227 10.628-6.537 10.628-13.078 0-7.359-6.131-13.08-13.08-13.08-2.044 0-4.089.408-5.723 1.225C109.13 7.358 100.548 0 90.327 0 80.111 0 71.528 7.358 69.483 17.165c-1.634-.817-3.675-1.224-5.723-1.224-7.355 0-13.08 6.13-13.08 13.079 0 6.54 4.497 11.85 10.628 13.078a88.936 88.936 0 0 1 29.43-4.903c10.217 0 19.616 1.635 29.02 4.903z"/><path fill="#FF8A3D" d="M245.232 135.695h55.18c6.948 0 12.262-4.086 12.262-12.669 0-8.582-5.314-12.668-12.262-12.668h-48.229c-2.451 0-4.09-1.638-4.09-3.683V85.014c0-2.452 1.639-3.676 4.09-3.676h48.23c6.947 0 12.26-4.09 12.26-12.672 0-8.586-5.313-12.668-12.26-12.668h-55.178c-18.803 0-27.795 8.172-27.795 24.113v31.878c0 15.534 8.992 23.706 27.795 23.706zm69.076 10.22h-54.36c-24.523 0-40.464 13.49-40.464 33.106 0 19.21 15.941 32.698 40.468 32.698h54.356c24.523 0 40.875-13.489 40.875-32.698 0-19.62-16.352-33.106-40.875-33.106zm0 40.464h-54.36c-6.13 0-9.4-3.272-9.4-7.358 0-4.497 3.27-7.766 9.4-7.766h54.36c6.131 0 9.403 3.27 9.403 7.766 0 4.086-3.272 7.358-9.403 7.358zm46.188-104.634h-8.586V64.984c0-7.359-6.127-12.669-15.53-12.669-8.993 0-15.53 5.31-15.53 12.669v64.17c0 7.358 6.537 12.668 15.53 12.668 8.993 0 15.53-5.31 15.53-12.669v-17.575h8.586c6.948 0 12.669-6.13 12.669-15.123 0-8.172-5.72-14.713-12.669-14.713zm154.09 68.256H388.289c-7.358 0-13.489-4.903-13.489-13.896 0-8.172 6.13-13.49 13.49-13.49h126.294c7.359 0 13.49 5.318 13.49 13.49 0 8.993-5.725 13.896-13.49 13.896zm-25.75-44.55V89.1c0-2.859-1.638-4.497-4.09-4.497h-87.875c-7.766 0-13.896-4.903-13.896-13.895 0-8.993 6.537-14.303 13.896-14.303h94.417c18.799 0 28.202 9.81 28.202 26.978v22.475c0 7.358-6.134 12.672-15.534 12.672s-15.12-5.724-15.12-13.079zm-73.98 62.129v11.034c0 2.04 1.635 3.675 4.086 3.675h90.328c7.765 0 13.896 4.907 13.896 13.9s-6.538 13.896-13.896 13.896H412.81c-18.802 0-28.609-7.765-28.609-24.934V167.58c0-7.359 6.131-12.669 15.53-12.669 8.583 0 15.124 5.72 15.124 12.669zm129.157 14.303V77.659c0-14.31 7.355-21.661 22.068-21.661h40.468c14.713 0 22.068 7.351 22.068 21.661v104.224c0 14.306-7.355 21.66-22.072 21.66h-40.464c-15.12 0-22.068-7.354-22.068-21.66zm55.177-9.81V87.465c0-2.04-1.227-3.268-2.862-3.268h-20.026c-1.635 0-2.862 1.227-2.862 3.268v84.2c0 2.042 1.227 3.27 2.862 3.27h20.026c1.635.406 2.862-1.228 2.862-2.862zm47.819 26.567V66.211c0-7.765 6.541-13.485 15.534-13.485s15.53 6.13 15.53 13.489v43.322h8.583c6.948 0 12.668 6.541 12.668 15.124 0 8.992-5.72 15.53-12.668 15.53h-8.583v58.856c0 7.77-6.13 13.49-15.53 13.49-8.993-.41-15.534-6.131-15.534-13.897zM778.621 88.693h6.127V64.987c0-6.948 5.724-11.444 13.896-11.444 8.18 0 13.896 4.496 13.896 11.444v71.528c0 6.948-5.31 11.445-13.896 11.445-8.575 0-13.896-4.907-13.896-11.855v-20.84h-6.127a10.67 10.67 0 0 1-8.586-4.497c-8.586 18.8-23.299 33.923-44.143 43.323-6.534 2.862-13.896 1.227-17.571-5.31-3.68-6.542-1.228-14.31 4.496-17.165 9.396-4.09 17.165-9.814 23.299-16.762h-15.13c-5.721 0-11.031-3.269-11.031-11.034 0-6.948 4.903-11.037 11.034-11.037h26.564c.821-2.859 1.642-5.72 1.642-8.583.403-2.451-.82-4.086-3.269-4.086h-24.523c-6.948 0-11.858-4.09-11.858-11.855 0-7.765 4.91-12.261 11.858-12.261h29.426c19.62 0 28.61 9.403 25.747 30.654 0 .82 0 1.634-.41 2.451 1.231-.406 1.634-.406 2.455-.406zm55.177 120.575c-18.802-4.09-41.28-14.307-55.998-26.158-13.489 13.49-31.47 23.296-50.684 26.975-6.53 1.224-13.896-1.635-16.344-9.814-2.045-7.761 1.63-14.302 8.586-16.344 20.84-5.317 38.005-17.575 46.591-33.516 2.862-4.906 9.81-8.175 18.396-5.724 8.575 2.862 12.258 11.038 9.396 16.758v.41c12.265 9.81 29.84 17.576 47.416 21.662 6.537 1.634 10.623 8.172 8.579 15.94-2.042 8.173-9.397 11.445-15.938 9.81zm-14.302-68.26V64.17c0-6.948 5.716-11.444 14.302-11.444 8.583 0 14.31 4.496 14.31 11.444v76.838c0 6.952-5.727 11.445-14.31 11.445-8.586 0-14.302-4.497-14.302-11.445z"/></svg>